<svg data-v-423bf9ae="" xmlns="http://www.w3.org/2000/svg" viewBox="0 0 356.11971264208574 182" class="iconAboveSlogan"><!----><!----><!----><g data-v-423bf9ae="" id="979fa23d-4641-476a-8b3b-5a3d7caf4fdd" fill="#FFFFFF" transform="matrix(5.791505813598633,0,0,5.791505813598633,-5.038605690002441,103)"><path d="M12.40 10.22L11.20 0.57L10.35 0.57L6.64 8.23L2.93 0.57L2.06 0.57L0.87 10.22L1.76 10.22L2.76 2.20L6.22 9.23L7.07 9.23L10.50 2.23L11.49 10.22ZM20.48 6.93C20.48 4.86 19.12 3.54 17.26 3.54C15.41 3.54 13.93 4.86 13.93 6.93C13.93 9.00 15.41 10.36 17.26 10.36C18.49 10.36 19.61 9.77 20.19 8.72L19.42 8.39C18.98 9.10 18.19 9.51 17.29 9.51C15.97 9.51 14.99 8.72 14.84 7.32L20.47 7.32C20.48 7.20 20.48 7.06 20.48 6.93ZM14.85 6.55C15.02 5.15 15.97 4.40 17.26 4.40C18.54 4.40 19.47 5.19 19.60 6.55ZM27.71 0L27.71 4.94C27.22 4.06 26.21 3.54 25.10 3.54C23.27 3.54 21.78 4.96 21.78 6.94C21.78 8.93 23.28 10.36 25.10 10.36C26.19 10.36 27.22 9.84 27.71 8.95L27.71 10.22L28.60 10.22L28.60 0ZM25.17 9.51C23.80 9.51 22.68 8.39 22.68 6.93C22.68 5.49 23.80 4.40 25.17 4.40C26.47 4.40 27.71 5.39 27.71 6.97C27.71 8.48 26.53 9.51 25.17 9.51ZM31.29 1.90C31.68 1.90 31.99 1.64 31.99 1.27C31.99 0.90 31.68 0.63 31.29 0.63C30.93 0.63 30.60 0.90 30.60 1.27C30.60 1.64 30.93 1.90 31.29 1.90ZM30.84 10.22L31.74 10.22L31.74 3.68L30.84 3.68ZM35.20 9.35L35.20 5.92L39.20 5.92L39.20 5.05L35.20 5.05L35.20 1.44L39.79 1.44L39.79 0.57L34.29 0.57L34.29 10.22L39.94 10.22L39.94 9.35ZM47.11 3.68L47.11 4.94C46.62 4.06 45.61 3.54 44.51 3.54C42.67 3.54 41.19 4.96 41.19 6.94C41.19 8.93 42.69 10.36 44.51 10.36C45.60 10.36 46.62 9.84 47.11 8.95L47.11 10.22L48.01 10.22L48.01 3.68ZM44.58 9.51C43.20 9.51 42.08 8.39 42.08 6.93C42.08 5.49 43.20 4.40 44.58 4.40C45.88 4.40 47.11 5.39 47.11 6.97C47.11 8.48 45.93 9.51 44.58 9.51ZM52.09 10.36C53.45 10.36 54.50 9.62 54.50 8.46C54.50 7.70 54.11 6.93 52.84 6.62L51.87 6.38C51.39 6.27 50.86 6.01 50.86 5.39C50.86 4.77 51.38 4.34 52.14 4.34C52.78 4.34 53.35 4.73 53.40 5.32L54.26 5.32C54.22 4.14 53.21 3.54 52.12 3.54C50.88 3.54 49.97 4.31 49.97 5.38C49.97 6.47 50.71 6.94 51.63 7.17L52.57 7.39C53.24 7.56 53.61 7.91 53.61 8.44C53.61 9.10 53.03 9.56 52.09 9.56C51.14 9.56 50.64 9.00 50.54 8.46L49.71 8.46C49.83 9.70 50.96 10.36 52.09 10.36ZM62.36 6.93C62.36 4.86 61.00 3.54 59.14 3.54C57.29 3.54 55.80 4.86 55.80 6.93C55.80 9.00 57.29 10.36 59.14 10.36C60.37 10.36 61.49 9.77 62.06 8.72L61.29 8.39C60.86 9.10 60.06 9.51 59.16 9.51C57.85 9.51 56.87 8.72 56.71 7.32L62.34 7.32C62.36 7.20 62.36 7.06 62.36 6.93ZM56.73 6.55C56.90 5.15 57.85 4.40 59.14 4.40C60.41 4.40 61.35 5.19 61.47 6.55Z"></path></g><!----><g data-v-423bf9ae="" id="8031d896-7140-4d57-9859-eb438d3b4aea" transform="matrix(2.8125,0,0,2.8125,134,0)" stroke="none" fill="#E6767A"><path d="M16 1c8.271 0 15 6.729 15 15s-6.729 15-15 15S1 24.271 1 16 7.729 1 16 1m0-1C7.163 0 0 7.163 0 16s7.163 16 16 16 16-7.163 16-16S24.837 0 16 0z"></path><path d="M16 7.045L24.955 16 16 24.955 7.045 16 16 7.045m0-1.414L5.631 16 16 26.369 26.369 16 16 5.631z"></path><path d="M16 12.538L19.462 16 16 19.462 12.538 16 16 12.538m0-1.414L11.124 16 16 20.876 20.876 16 16 11.124z"></path></g><!----><g data-v-423bf9ae="" id="a465e122-81c0-479d-b39e-6549da3d7638" fill="#FFFFFF" transform="matrix(0.7753418684005737,0,0,0.7753418684005737,45.53823471069336,203.21957397460938)"><path d="M1.12 9.75L1.12 9.75L1.12 9.75Q1.12 11.03 1.48 12.01L1.48 12.01L1.48 12.01Q1.85 13.00 2.56 13.57L2.56 13.57L2.56 13.57Q3.28 14.14 4.26 14.14L4.26 14.14L4.26 14.14Q4.83 14.14 5.33 13.92L5.33 13.92L5.33 13.92Q5.82 13.70 6.16 13.33L6.16 13.33L6.16 13.33Q6.51 12.96 6.75 12.49L6.75 12.49L6.75 12.49Q6.99 12.01 7.11 11.50L7.11 11.50L7.11 11.50Q7.23 10.99 7.23 10.48L7.23 10.48L7.23 10.48Q7.23 8.50 6.37 7.29L6.37 7.29L6.37 7.29Q5.52 6.07 4.07 6.07L4.07 6.07L4.07 6.07Q3.49 6.07 3.00 6.28L3.00 6.28L3.00 6.28Q2.51 6.49 2.17 6.85L2.17 6.85L2.17 6.85Q1.83 7.21 1.59 7.69L1.59 7.69L1.59 7.69Q1.35 8.16 1.23 8.69L1.23 8.69L1.23 8.69Q1.12 9.21 1.12 9.75ZM0.37 10.16L0.37 10.16L0.37 10.16Q0.37 8.16 1.47 6.92L1.47 6.92L1.47 6.92Q2.56 5.69 4.40 5.69L4.40 5.69L4.40 5.69Q5.54 5.69 6.35 6.27L6.35 6.27L6.35 6.27Q7.17 6.86 7.57 7.84L7.57 7.84L7.57 7.84Q7.96 8.83 7.96 10.11L7.96 10.11L7.96 10.11Q7.96 10.75 7.81 11.38L7.81 11.38L7.81 11.38Q7.66 12.00 7.34 12.58L7.34 12.58L7.34 12.58Q7.01 13.17 6.55 13.61L6.55 13.61L6.55 13.61Q6.09 14.05 5.41 14.32L5.41 14.32L5.41 14.32Q4.74 14.58 3.93 14.58L3.93 14.58L3.93 14.58Q2.88 14.58 2.05 13.98L2.05 13.98L2.05 13.98Q1.23 13.37 0.80 12.37L0.80 12.37L0.80 12.37Q0.37 11.37 0.37 10.16ZM16.93 6.36L15.67 6.14L15.72 5.89L17.79 5.89L22.52 13.17L22.52 6.33L21.27 6.16L21.31 5.89L24.21 5.89L24.15 6.16L23.02 6.32L23.02 14.44L22.65 14.52L17.44 6.65L17.44 13.95L18.70 14.08L18.63 14.40L15.75 14.40L15.79 14.11L16.93 13.90L16.93 6.36ZM33.11 6.36L31.89 6.18L31.94 5.89L38.13 5.89L37.92 8.07L37.60 8.03L37.47 6.24L33.82 6.24L33.82 9.89L36.11 9.89L36.37 8.94L36.74 8.89L36.51 11.55L36.16 11.61L36.05 10.26L33.82 10.26L33.82 14.03L37.67 14.03L38.17 12.19L38.45 12.26L38.25 14.40L31.91 14.40L31.95 14.11L33.11 13.90L33.11 6.36ZM46.17 13.60L46.17 13.60L46.38 11.66L46.70 11.71L46.89 13.21L46.89 13.21Q47.12 13.64 47.65 13.89L47.65 13.89L47.65 13.89Q48.18 14.14 48.78 14.14L48.78 14.14L48.78 14.14Q49.46 14.14 49.94 13.74L49.94 13.74L49.94 13.74Q50.42 13.33 50.42 12.61L50.42 12.61L50.42 12.61Q50.42 12.20 50.21 11.83L50.21 11.83L50.21 11.83Q49.99 11.46 49.65 11.18L49.65 11.18L49.65 11.18Q49.30 10.90 48.88 10.63L48.88 10.63L48.88 10.63Q48.46 10.36 48.04 10.07L48.04 10.07L48.04 10.07Q47.63 9.79 47.28 9.48L47.28 9.48L47.28 9.48Q46.94 9.17 46.72 8.75L46.72 8.75L46.72 8.75Q46.50 8.33 46.50 7.84L46.50 7.84L46.50 7.84Q46.50 6.88 47.20 6.29L47.20 6.29L47.20 6.29Q47.89 5.71 48.77 5.71L48.77 5.71L48.77 5.71Q49.36 5.71 49.90 5.90L49.90 5.90L49.90 5.90Q50.44 6.09 50.77 6.46L50.77 6.46L50.54 8.58L50.23 8.53L50.05 6.87L50.05 6.87Q49.86 6.54 49.44 6.32L49.44 6.32L49.44 6.32Q49.03 6.10 48.60 6.10L48.60 6.10L48.60 6.10Q48.00 6.10 47.59 6.48L47.59 6.48L47.59 6.48Q47.17 6.87 47.17 7.52L47.17 7.52L47.17 7.52Q47.17 7.96 47.40 8.35L47.40 8.35L47.40 8.35Q47.62 8.74 47.97 9.03L47.97 9.03L47.97 9.03Q48.32 9.32 48.75 9.61L48.75 9.61L48.75 9.61Q49.17 9.89 49.60 10.17L49.60 10.17L49.60 10.17Q50.03 10.45 50.38 10.75L50.38 10.75L50.38 10.75Q50.73 11.05 50.95 11.45L50.95 11.45L50.95 11.45Q51.17 11.85 51.17 12.29L51.17 12.29L51.17 12.29Q51.17 13.28 50.42 13.93L50.42 13.93L50.42 13.93Q49.67 14.57 48.43 14.57L48.43 14.57L48.43 14.57Q47.71 14.57 47.11 14.30L47.11 14.30L47.11 14.30Q46.51 14.03 46.17 13.60ZM58.95 8.09L58.88 5.89L65.95 5.89L65.71 8.16L65.37 8.12L65.25 6.24L62.71 6.24L62.71 13.90L63.92 14.08L63.85 14.40L60.75 14.40L60.79 14.11L61.98 13.90L61.98 6.24L59.55 6.24L59.31 8.15L58.95 8.09ZM74.44 9.75L74.44 9.75L74.44 9.75Q74.44 11.03 74.80 12.01L74.80 12.01L74.80 12.01Q75.16 13.00 75.88 13.57L75.88 13.57L75.88 13.57Q76.60 14.14 77.57 14.14L77.57 14.14L77.57 14.14Q78.15 14.14 78.64 13.92L78.64 13.92L78.64 13.92Q79.13 13.70 79.48 13.33L79.48 13.33L79.48 13.33Q79.82 12.96 80.07 12.49L80.07 12.49L80.07 12.49Q80.31 12.01 80.42 11.50L80.42 11.50L80.42 11.50Q80.54 10.99 80.54 10.48L80.54 10.48L80.54 10.48Q80.54 8.50 79.69 7.29L79.69 7.29L79.69 7.29Q78.84 6.07 77.39 6.07L77.39 6.07L77.39 6.07Q76.81 6.07 76.32 6.28L76.32 6.28L76.32 6.28Q75.82 6.49 75.48 6.85L75.48 6.85L75.48 6.85Q75.14 7.21 74.90 7.69L74.90 7.69L74.90 7.69Q74.66 8.16 74.55 8.69L74.55 8.69L74.55 8.69Q74.44 9.21 74.44 9.75ZM73.68 10.16L73.68 10.16L73.68 10.16Q73.68 8.16 74.78 6.92L74.78 6.92L74.78 6.92Q75.88 5.69 77.72 5.69L77.72 5.69L77.72 5.69Q78.85 5.69 79.67 6.27L79.67 6.27L79.67 6.27Q80.49 6.86 80.88 7.84L80.88 7.84L80.88 7.84Q81.28 8.83 81.28 10.11L81.28 10.11L81.28 10.11Q81.28 10.75 81.13 11.38L81.13 11.38L81.13 11.38Q80.98 12.00 80.65 12.58L80.65 12.58L80.65 12.58Q80.33 13.17 79.87 13.61L79.87 13.61L79.87 13.61Q79.41 14.05 78.73 14.32L78.73 14.32L78.73 14.32Q78.05 14.58 77.25 14.58L77.25 14.58L77.25 14.58Q76.19 14.58 75.37 13.98L75.37 13.98L75.37 13.98Q74.55 13.37 74.12 12.37L74.12 12.37L74.12 12.37Q73.68 11.37 73.68 10.16ZM92.42 14.40L89.00 14.40L89.04 14.11L90.12 13.90L90.12 6.51L89.01 6.36L89.07 6.12L89.07 6.12Q89.24 6.09 89.69 6.02L89.69 6.02L89.69 6.02Q90.14 5.94 90.37 5.91L90.37 5.91L90.37 5.91Q90.60 5.88 91.01 5.84L91.01 5.84L91.01 5.84Q91.42 5.81 91.83 5.81L91.83 5.81L91.83 5.81Q92.52 5.81 93.11 5.96L93.11 5.96L93.11 5.96Q93.70 6.10 94.16 6.40L94.16 6.40L94.16 6.40Q94.62 6.69 94.88 7.18L94.88 7.18L94.88 7.18Q95.14 7.66 95.14 8.29L95.14 8.29L95.14 8.29Q95.14 8.90 94.86 9.43L94.86 9.43L94.86 9.43Q94.58 9.97 94.12 10.33L94.12 10.33L94.12 10.33Q93.66 10.69 93.06 10.90L93.06 10.90L93.06 10.90Q92.46 11.10 91.82 11.10L91.82 11.10L91.82 11.10Q91.55 11.10 91.48 11.09L91.48 11.09L91.41 10.80L91.78 10.78L91.78 10.78Q92.44 10.75 92.94 10.55L92.94 10.55L92.94 10.55Q93.43 10.36 93.72 10.03L93.72 10.03L93.72 10.03Q94.01 9.70 94.15 9.30L94.15 9.30L94.15 9.30Q94.29 8.90 94.29 8.43L94.29 8.43L94.29 8.43Q94.29 7.98 94.13 7.57L94.13 7.57L94.13 7.57Q93.96 7.16 93.64 6.83L93.64 6.83L93.64 6.83Q93.32 6.50 92.79 6.31L92.79 6.31L92.79 6.31Q92.27 6.11 91.62 6.11L91.62 6.11L90.87 6.15L90.87 13.95L92.47 14.08L92.42 14.40ZM115.55 14.40L112.72 14.40L112.75 14.17L113.89 13.96L114.46 6.36L113.20 6.14L113.25 5.89L115.43 5.89L115.92 7.18L118.06 12.84L120.51 6.88L120.93 5.89L123.16 5.89L123.12 6.14L121.95 6.34L122.32 14.01L123.55 14.12L123.54 14.40L120.38 14.40L120.42 14.17L121.59 13.96L121.20 6.41L118.02 13.99L117.68 14.05L114.89 6.53L114.35 14.01L115.59 14.12L115.55 14.40ZM132.47 6.36L131.25 6.18L131.30 5.89L137.49 5.89L137.28 8.07L136.96 8.03L136.83 6.24L133.18 6.24L133.18 9.89L135.47 9.89L135.73 8.94L136.10 8.89L135.87 11.55L135.52 11.61L135.41 10.26L133.18 10.26L133.18 14.03L137.03 14.03L137.53 12.19L137.81 12.26L137.61 14.40L131.27 14.40L131.31 14.11L132.47 13.90L132.47 6.36ZM147.42 6.19L147.42 14.03L148.65 14.03L148.65 14.03Q150.45 14.03 151.55 12.95L151.55 12.95L151.55 12.95Q152.65 11.87 152.65 10.12L152.65 10.12L152.65 10.12Q152.65 8.20 151.59 7.18L151.59 7.18L151.59 7.18Q150.54 6.16 148.61 6.16L148.61 6.16L148.61 6.16Q147.61 6.16 147.42 6.19L147.42 6.19ZM148.46 14.40L145.52 14.40L145.57 14.11L146.73 13.90L146.73 6.51L145.55 6.36L145.62 6.12L145.62 6.12Q147.70 5.79 148.86 5.79L148.86 5.79L148.86 5.79Q149.82 5.79 150.60 6.03L150.60 6.03L150.60 6.03Q151.38 6.26 151.89 6.66L151.89 6.66L151.89 6.66Q152.40 7.05 152.74 7.59L152.74 7.59L152.74 7.59Q153.08 8.13 153.23 8.71L153.23 8.71L153.23 8.71Q153.38 9.29 153.38 9.92L153.38 9.92L153.38 9.92Q153.38 10.64 153.21 11.28L153.21 11.28L153.21 11.28Q153.04 11.93 152.66 12.50L152.66 12.50L152.66 12.50Q152.28 13.08 151.71 13.49L151.71 13.49L151.71 13.49Q151.15 13.91 150.32 14.15L150.32 14.15L150.32 14.15Q149.49 14.40 148.46 14.40L148.46 14.40ZM162.26 6.33L161.08 6.16L161.12 5.89L164.25 5.89L164.20 6.16L163.00 6.32L163.00 13.95L164.32 14.08L164.26 14.40L161.15 14.40L161.18 14.11L162.26 13.90L162.26 6.33ZM172.06 10.25L172.06 10.25L172.06 10.25Q172.06 9.73 172.17 9.21L172.17 9.21L172.17 9.21Q172.27 8.68 172.47 8.17L172.47 8.17L172.47 8.17Q172.68 7.66 173.00 7.22L173.00 7.22L173.00 7.22Q173.33 6.77 173.75 6.44L173.75 6.44L173.75 6.44Q174.16 6.10 174.72 5.90L174.72 5.90L174.72 5.90Q175.27 5.71 175.91 5.71L175.91 5.71L175.91 5.71Q177.32 5.71 178.23 6.39L178.23 6.39L178.02 8.70L177.70 8.64L177.50 6.87L177.50 6.87Q176.90 6.09 175.59 6.09L175.59 6.09L175.59 6.09Q174.44 6.09 173.61 7.19L173.61 7.19L173.61 7.19Q172.79 8.30 172.79 10.00L172.79 10.00L172.79 10.00Q172.79 11.92 173.59 12.97L173.59 12.97L173.59 12.97Q174.39 14.03 175.87 14.03L175.87 14.03L175.87 14.03Q176.60 14.03 177.29 13.65L177.29 13.65L177.29 13.65Q177.98 13.28 178.45 12.74L178.45 12.74L178.61 12.99L178.61 12.99Q178.44 13.25 178.15 13.51L178.15 13.51L178.15 13.51Q177.86 13.77 177.48 14.02L177.48 14.02L177.48 14.02Q177.09 14.27 176.59 14.42L176.59 14.42L176.59 14.42Q176.08 14.57 175.55 14.57L175.55 14.57L175.55 14.57Q173.98 14.57 173.02 13.40L173.02 13.40L173.02 13.40Q172.06 12.22 172.06 10.25ZM190.35 6.98L188.98 10.75L191.67 10.75L190.35 6.98ZM189.03 14.40L186.30 14.40L186.33 14.11L187.30 13.90L190.30 5.82L190.66 5.73L193.50 13.95L194.40 14.08L194.35 14.39L191.55 14.39L191.61 14.10L192.75 13.90L191.80 11.13L188.84 11.13L187.83 13.95L189.09 14.08L189.03 14.40ZM208.26 14.40L202.10 14.40L202.14 14.11L203.29 13.90L203.29 6.34L202.12 6.17L202.15 5.90L205.26 5.90L205.23 6.17L204.03 6.32L204.03 14.03L207.65 14.03L208.17 12.09L208.48 12.14L208.26 14.40ZM230.17 6.98L228.80 10.75L231.49 10.75L230.17 6.98ZM228.85 14.40L226.12 14.40L226.15 14.11L227.12 13.90L230.12 5.82L230.48 5.73L233.32 13.95L234.22 14.08L234.17 14.39L231.37 14.39L231.43 14.10L232.57 13.90L231.62 11.13L228.66 11.13L227.65 13.95L228.91 14.08L228.85 14.40ZM241.92 13.60L241.92 13.60L242.12 11.66L242.45 11.71L242.64 13.21L242.64 13.21Q242.87 13.64 243.40 13.89L243.40 13.89L243.40 13.89Q243.93 14.14 244.53 14.14L244.53 14.14L244.53 14.14Q245.21 14.14 245.69 13.74L245.69 13.74L245.69 13.74Q246.17 13.33 246.17 12.61L246.17 12.61L246.17 12.61Q246.17 12.20 245.95 11.83L245.95 11.83L245.95 11.83Q245.74 11.46 245.39 11.18L245.39 11.18L245.39 11.18Q245.05 10.90 244.63 10.63L244.63 10.63L244.63 10.63Q244.21 10.36 243.79 10.07L243.79 10.07L243.79 10.07Q243.37 9.79 243.03 9.48L243.03 9.48L243.03 9.48Q242.68 9.17 242.47 8.75L242.47 8.75L242.47 8.75Q242.25 8.33 242.25 7.84L242.25 7.84L242.25 7.84Q242.25 6.88 242.95 6.29L242.95 6.29L242.95 6.29Q243.64 5.71 244.52 5.71L244.52 5.71L244.52 5.71Q245.11 5.71 245.65 5.90L245.65 5.90L245.65 5.90Q246.19 6.09 246.52 6.46L246.52 6.46L246.29 8.58L245.98 8.53L245.79 6.87L245.79 6.87Q245.61 6.54 245.19 6.32L245.19 6.32L245.19 6.32Q244.77 6.10 244.34 6.10L244.34 6.10L244.34 6.10Q243.75 6.10 243.34 6.48L243.34 6.48L243.34 6.48Q242.92 6.87 242.92 7.52L242.92 7.52L242.92 7.52Q242.92 7.96 243.14 8.35L243.14 8.35L243.14 8.35Q243.37 8.74 243.72 9.03L243.72 9.03L243.72 9.03Q244.07 9.32 244.49 9.61L244.49 9.61L244.49 9.61Q244.92 9.89 245.35 10.17L245.35 10.17L245.35 10.17Q245.77 10.45 246.12 10.75L246.12 10.75L246.12 10.75Q246.48 11.05 246.70 11.45L246.70 11.45L246.70 11.45Q246.92 11.85 246.92 12.29L246.92 12.29L246.92 12.29Q246.92 13.28 246.17 13.93L246.17 13.93L246.17 13.93Q245.42 14.57 244.17 14.57L244.17 14.57L244.17 14.57Q243.46 14.57 242.86 14.30L242.86 14.30L242.86 14.30Q242.26 14.03 241.92 13.60ZM254.65 13.60L254.65 13.60L254.85 11.66L255.18 11.71L255.37 13.21L255.37 13.21Q255.60 13.64 256.13 13.89L256.13 13.89L256.13 13.89Q256.66 14.14 257.26 14.14L257.26 14.14L257.26 14.14Q257.94 14.14 258.42 13.74L258.42 13.74L258.42 13.74Q258.90 13.33 258.90 12.61L258.90 12.61L258.90 12.61Q258.90 12.20 258.68 11.83L258.68 11.83L258.68 11.83Q258.47 11.46 258.12 11.18L258.12 11.18L258.12 11.18Q257.78 10.90 257.36 10.63L257.36 10.63L257.36 10.63Q256.94 10.36 256.52 10.07L256.52 10.07L256.52 10.07Q256.10 9.79 255.76 9.48L255.76 9.48L255.76 9.48Q255.41 9.17 255.20 8.75L255.20 8.75L255.20 8.75Q254.98 8.33 254.98 7.84L254.98 7.84L254.98 7.84Q254.98 6.88 255.67 6.29L255.67 6.29L255.67 6.29Q256.37 5.71 257.25 5.71L257.25 5.71L257.25 5.71Q257.84 5.71 258.38 5.90L258.38 5.90L258.38 5.90Q258.92 6.09 259.25 6.46L259.25 6.46L259.02 8.58L258.71 8.53L258.52 6.87L258.52 6.87Q258.34 6.54 257.92 6.32L257.92 6.32L257.92 6.32Q257.50 6.10 257.07 6.10L257.07 6.10L257.07 6.10Q256.48 6.10 256.06 6.48L256.06 6.48L256.06 6.48Q255.65 6.87 255.65 7.52L255.65 7.52L255.65 7.52Q255.65 7.96 255.87 8.35L255.87 8.35L255.87 8.35Q256.09 8.74 256.45 9.03L256.45 9.03L256.45 9.03Q256.80 9.32 257.22 9.61L257.22 9.61L257.22 9.61Q257.65 9.89 258.07 10.17L258.07 10.17L258.07 10.17Q258.50 10.45 258.85 10.75L258.85 10.75L258.85 10.75Q259.21 11.05 259.43 11.45L259.43 11.45L259.43 11.45Q259.65 11.85 259.65 12.29L259.65 12.29L259.65 12.29Q259.65 13.28 258.90 13.93L258.90 13.93L258.90 13.93Q258.15 14.57 256.90 14.57L256.90 14.57L256.90 14.57Q256.19 14.57 255.59 14.30L255.59 14.30L255.59 14.30Q254.99 14.03 254.65 13.60ZM268.53 6.33L267.35 6.16L267.39 5.89L270.51 5.89L270.46 6.16L269.27 6.32L269.27 13.95L270.59 14.08L270.53 14.40L267.42 14.40L267.45 14.11L268.53 13.90L268.53 6.33ZM278.30 13.60L278.30 13.60L278.51 11.66L278.84 11.71L279.03 13.21L279.03 13.21Q279.25 13.64 279.78 13.89L279.78 13.89L279.78 13.89Q280.31 14.14 280.92 14.14L280.92 14.14L280.92 14.14Q281.60 14.14 282.08 13.74L282.08 13.74L282.08 13.74Q282.56 13.33 282.56 12.61L282.56 12.61L282.56 12.61Q282.56 12.20 282.34 11.83L282.34 11.83L282.34 11.83Q282.13 11.46 281.78 11.18L281.78 11.18L281.78 11.18Q281.44 10.90 281.02 10.63L281.02 10.63L281.02 10.63Q280.59 10.36 280.18 10.07L280.18 10.07L280.18 10.07Q279.76 9.79 279.42 9.48L279.42 9.48L279.42 9.48Q279.07 9.17 278.85 8.75L278.85 8.75L278.85 8.75Q278.64 8.33 278.64 7.84L278.64 7.84L278.64 7.84Q278.64 6.88 279.33 6.29L279.33 6.29L279.33 6.29Q280.03 5.71 280.91 5.71L280.91 5.71L280.91 5.71Q281.50 5.71 282.04 5.90L282.04 5.90L282.04 5.90Q282.58 6.09 282.91 6.46L282.91 6.46L282.68 8.58L282.37 8.53L282.18 6.87L282.18 6.87Q282.00 6.54 281.58 6.32L281.58 6.32L281.58 6.32Q281.16 6.10 280.73 6.10L280.73 6.10L280.73 6.10Q280.14 6.10 279.72 6.48L279.72 6.48L279.72 6.48Q279.31 6.87 279.31 7.52L279.31 7.52L279.31 7.52Q279.31 7.96 279.53 8.35L279.53 8.35L279.53 8.35Q279.75 8.74 280.11 9.03L280.11 9.03L280.11 9.03Q280.46 9.32 280.88 9.61L280.88 9.61L280.88 9.61Q281.31 9.89 281.73 10.17L281.73 10.17L281.73 10.17Q282.16 10.45 282.51 10.75L282.51 10.75L282.51 10.75Q282.86 11.05 283.09 11.45L283.09 11.45L283.09 11.45Q283.31 11.85 283.31 12.29L283.31 12.29L283.31 12.29Q283.31 13.28 282.56 13.93L282.56 13.93L282.56 13.93Q281.80 14.57 280.56 14.57L280.56 14.57L280.56 14.57Q279.85 14.57 279.25 14.30L279.25 14.30L279.25 14.30Q278.65 14.03 278.30 13.60ZM291.09 8.09L291.02 5.89L298.08 5.89L297.84 8.16L297.50 8.12L297.38 6.24L294.85 6.24L294.85 13.90L296.06 14.08L295.98 14.40L292.89 14.40L292.92 14.11L294.12 13.90L294.12 6.24L291.68 6.24L291.44 8.15L291.09 8.09ZM309.85 6.98L308.49 10.75L311.17 10.75L309.85 6.98ZM308.53 14.40L305.81 14.40L305.84 14.11L306.81 13.90L309.80 5.82L310.17 5.73L313.00 13.95L313.91 14.08L313.85 14.39L311.06 14.39L311.12 14.10L312.25 13.90L311.30 11.13L308.35 11.13L307.34 13.95L308.59 14.08L308.53 14.40ZM322.84 6.36L321.58 6.14L321.63 5.89L323.70 5.89L328.43 13.17L328.43 6.33L327.17 6.16L327.22 5.89L330.11 5.89L330.06 6.16L328.92 6.32L328.92 14.44L328.56 14.52L323.35 6.65L323.35 13.95L324.60 14.08L324.54 14.40L321.66 14.40L321.70 14.11L322.84 13.90L322.84 6.36ZM337.86 8.09L337.79 5.89L344.85 5.89L344.61 8.16L344.27 8.12L344.16 6.24L341.62 6.24L341.62 13.90L342.83 14.08L342.75 14.40L339.66 14.40L339.69 14.11L340.89 13.90L340.89 6.24L338.45 6.24L338.21 8.15L337.86 8.09Z"></path></g></svg>