<svg data-v-fde0c5aa="" xmlns="http://www.w3.org/2000/svg" viewBox="0 0 300 300" class="font"><!----><defs data-v-fde0c5aa=""><!----></defs><rect data-v-fde0c5aa="" fill="#3E214F" x="0" y="0" width="300px" height="300px" class="logo-background-square"></rect><defs data-v-fde0c5aa=""><!----></defs><g data-v-fde0c5aa="" id="4a6f9626-63d0-4bd6-906c-259f955fef3e" fill="#E6767A" transform="matrix(3.577817440032959,0,0,3.577817440032959,36.8872988156696,131.4669063078986)"><path d="M12.40 10.22L11.20 0.57L10.35 0.57L6.64 8.23L2.93 0.57L2.06 0.57L0.87 10.22L1.76 10.22L2.76 2.20L6.22 9.23L7.07 9.23L10.50 2.23L11.49 10.22ZM20.48 6.93C20.48 4.86 19.12 3.54 17.26 3.54C15.41 3.54 13.93 4.86 13.93 6.93C13.93 9.00 15.41 10.36 17.26 10.36C18.49 10.36 19.61 9.77 20.19 8.72L19.42 8.39C18.98 9.10 18.19 9.51 17.29 9.51C15.97 9.51 14.99 8.72 14.84 7.32L20.47 7.32C20.48 7.20 20.48 7.06 20.48 6.93ZM14.85 6.55C15.02 5.15 15.97 4.40 17.26 4.40C18.54 4.40 19.47 5.19 19.60 6.55ZM27.71 0L27.71 4.94C27.22 4.06 26.21 3.54 25.10 3.54C23.27 3.54 21.78 4.96 21.78 6.94C21.78 8.93 23.28 10.36 25.10 10.36C26.19 10.36 27.22 9.84 27.71 8.95L27.71 10.22L28.60 10.22L28.60 0ZM25.17 9.51C23.80 9.51 22.68 8.39 22.68 6.93C22.68 5.49 23.80 4.40 25.17 4.40C26.47 4.40 27.71 5.39 27.71 6.97C27.71 8.48 26.53 9.51 25.17 9.51ZM31.29 1.90C31.68 1.90 31.99 1.64 31.99 1.27C31.99 0.90 31.68 0.63 31.29 0.63C30.93 0.63 30.60 0.90 30.60 1.27C30.60 1.64 30.93 1.90 31.29 1.90ZM30.84 10.22L31.74 10.22L31.74 3.68L30.84 3.68ZM35.20 9.35L35.20 5.92L39.20 5.92L39.20 5.05L35.20 5.05L35.20 1.44L39.79 1.44L39.79 0.57L34.29 0.57L34.29 10.22L39.94 10.22L39.94 9.35ZM47.11 3.68L47.11 4.94C46.62 4.06 45.61 3.54 44.51 3.54C42.67 3.54 41.19 4.96 41.19 6.94C41.19 8.93 42.69 10.36 44.51 10.36C45.60 10.36 46.62 9.84 47.11 8.95L47.11 10.22L48.01 10.22L48.01 3.68ZM44.58 9.51C43.20 9.51 42.08 8.39 42.08 6.93C42.08 5.49 43.20 4.40 44.58 4.40C45.88 4.40 47.11 5.39 47.11 6.97C47.11 8.48 45.93 9.51 44.58 9.51ZM52.09 10.36C53.45 10.36 54.50 9.62 54.50 8.46C54.50 7.70 54.11 6.93 52.84 6.62L51.87 6.38C51.39 6.27 50.86 6.01 50.86 5.39C50.86 4.77 51.38 4.34 52.14 4.34C52.78 4.34 53.35 4.73 53.40 5.32L54.26 5.32C54.22 4.14 53.21 3.54 52.12 3.54C50.88 3.54 49.97 4.31 49.97 5.38C49.97 6.47 50.71 6.94 51.63 7.17L52.57 7.39C53.24 7.56 53.61 7.91 53.61 8.44C53.61 9.10 53.03 9.56 52.09 9.56C51.14 9.56 50.64 9.00 50.54 8.46L49.71 8.46C49.83 9.70 50.96 10.36 52.09 10.36ZM62.36 6.93C62.36 4.86 61.00 3.54 59.14 3.54C57.29 3.54 55.80 4.86 55.80 6.93C55.80 9.00 57.29 10.36 59.14 10.36C60.37 10.36 61.49 9.77 62.06 8.72L61.29 8.39C60.86 9.10 60.06 9.51 59.16 9.51C57.85 9.51 56.87 8.72 56.71 7.32L62.34 7.32C62.36 7.20 62.36 7.06 62.36 6.93ZM56.73 6.55C56.90 5.15 57.85 4.40 59.14 4.40C60.41 4.40 61.35 5.19 61.47 6.55Z"></path></g><!----><!----></svg>